<svg version="1.1" xmlns="http://www.w3.org/2000/svg" xmlns:xlink="http://www.w3.org/1999/xlink" width="14" height="16" viewBox="0 0 14 16" aria-hidden="true">
  <path fill="#666" d="m3.89,15.145c-0.25,-0.16 -0.51,-0.39 -0.77,-0.71c-0.18,-0.21 -0.4,-0.51 -0.66,-0.9c-0.45,-0.65 -0.82,-1.4 -1.1,-2.25c-0.31,-0.93 -0.46,-1.82 -0.46,-2.69c0,-0.97 0.21,-1.82 0.62,-2.53c0.32,-0.57 0.75,-1.02 1.3,-1.35c0.55,-0.34 1.13,-0.51 1.76,-0.52c0.22,0 0.45,0.03 0.7,0.09c0.18,0.05 0.4,0.13 0.66,0.23c0.34,0.13 0.53,0.21 0.59,0.23c0.2,0.07 0.37,0.1 0.5,0.1c0.1,0 0.24,-0.03 0.4,-0.08c0.09,-0.03 0.26,-0.09 0.5,-0.19c0.24,-0.09 0.43,-0.16 0.58,-0.22c0.23,-0.07 0.45,-0.13 0.65,-0.16c0.24,-0.04 0.48,-0.05 0.71,-0.03c0.44,0.03 0.84,0.12 1.2,0.26c0.63,0.25 1.14,0.65 1.52,1.21c-0.16,0.1 -0.31,0.21 -0.45,0.34c-0.31,0.28 -0.57,0.59 -0.76,0.93c-0.27,0.48 -0.4,1.01 -0.4,1.56c0.01,0.67 0.18,1.26 0.52,1.77c0.24,0.37 0.56,0.69 0.95,0.95c0.19,0.13 0.36,0.22 0.52,0.28c-0.08,0.26 -0.17,0.49 -0.25,0.68c-0.22,0.52 -0.48,0.99 -0.77,1.43c-0.27,0.39 -0.48,0.68 -0.64,0.87c-0.25,0.3 -0.49,0.52 -0.73,0.68c-0.28,0.18 -0.58,0.27 -0.9,0.27c-0.22,0.01 -0.43,-0.02 -0.64,-0.08c-0.12,-0.04 -0.3,-0.1 -0.53,-0.2c-0.23,-0.1 -0.42,-0.17 -0.56,-0.21c-0.23,-0.06 -0.47,-0.09 -0.72,-0.09c-0.25,0 -0.49,0.03 -0.72,0.09c-0.16,0.04 -0.34,0.11 -0.56,0.2c-0.26,0.11 -0.43,0.18 -0.53,0.21c-0.2,0.06 -0.41,0.1 -0.61,0.11c-0.32,0 -0.62,-0.09 -0.92,-0.28zm4.24,-11.42c-0.42,0.21 -0.82,0.3 -1.22,0.27c-0.06,-0.4 0,-0.81 0.17,-1.26c0.15,-0.38 0.35,-0.73 0.62,-1.04s0.6,-0.57 1.01,-0.78c0.41,-0.21 0.8,-0.32 1.17,-0.34c0.05,0.42 0,0.84 -0.15,1.28c-0.14,0.4 -0.35,0.76 -0.62,1.09c-0.27,0.33 -0.6,0.59 -0.98,0.78z"/>
</svg>
